<?xml version="1.0" encoding="UTF-8"?>
<!DOCTYPE svg PUBLIC "-//W3C//DTD SVG 1.1//EN" "http://www.w3.org/Graphics/SVG/1.1/DTD/svg11.dtd">
<svg xmlns="http://www.w3.org/2000/svg" version="1.1" viewBox="0 0 41 41" stroke="none">
	<rect width="100%" height="100%" fill="#ffffff"/>
	<path d="M10,10h7v1h-7z M18,10h1v3h-1z M20,10h1v1h-1z M24,10h7v1h-7z M10,11h1v6h-1z M16,11h1v6h-1z M21,11h2v1h-2z M24,11h1v6h-1z M30,11h1v6h-1z M12,12h3v3h-3z M19,12h3v1h-3z M26,12h3v3h-3z M20,13h1v2h-1z M22,13h1v2h-1z M19,14h1v2h-1z M21,14h1v2h-1z M18,15h1v7h-1z M11,16h5v1h-5z M20,16h1v2h-1z M22,16h1v2h-1z M25,16h5v1h-5z M12,18h3v1h-3z M16,18h1v1h-1z M19,18h1v2h-1z M23,18h3v1h-3z M28,18h1v5h-1z M29,18h2v1h-2z M11,19h1v4h-1z M13,19h2v1h-2z M17,19h1v1h-1z M20,19h2v2h-2z M22,19h1v1h-1z M25,19h1v1h-1z M29,19h1v1h-1z M10,20h1v2h-1z M12,20h1v1h-1z M16,20h1v1h-1z M23,20h1v1h-1z M26,20h1v3h-1z M13,21h3v1h-3z M21,21h2v1h-2z M24,21h1v5h-1z M25,21h1v1h-1z M29,21h1v4h-1z M12,22h2v1h-2z M15,22h2v1h-2z M19,22h2v1h-2z M23,22h1v1h-1z M30,22h1v1h-1z M18,23h1v1h-1z M20,23h1v1h-1z M27,23h1v1h-1z M10,24h7v1h-7z M25,24h1v1h-1z M30,24h1v1h-1z M10,25h1v6h-1z M16,25h1v6h-1z M19,25h2v1h-2z M22,25h1v6h-1z M27,25h1v1h-1z M12,26h3v3h-3z M18,26h1v3h-1z M23,26h1v1h-1z M25,26h1v2h-1z M28,26h1v5h-1z M20,27h1v2h-1z M24,27h1v2h-1z M19,28h1v1h-1z M21,28h1v2h-1z M23,28h1v3h-1z M26,28h1v3h-1z M27,28h1v1h-1z M25,29h1v1h-1z M29,29h1v1h-1z M11,30h5v1h-5z M27,30h1v1h-1z" fill="#000000"/>
</svg>
